<svg id="visual" viewBox="0 0 900 600" width="900" height="600" xmlns="http://www.w3.org/2000/svg" xmlns:xlink="http://www.w3.org/1999/xlink" version="1.1"><rect x="0" y="0" width="900" height="600" fill="#001122"></rect><defs><linearGradient id="grad1_0" x1="33.3%" y1="0%" x2="100%" y2="100%"><stop offset="20%" stop-color="#001122" stop-opacity="1"></stop><stop offset="80%" stop-color="#001122" stop-opacity="1"></stop></linearGradient></defs><defs><linearGradient id="grad2_0" x1="0%" y1="0%" x2="66.7%" y2="100%"><stop offset="20%" stop-color="#001122" stop-opacity="1"></stop><stop offset="80%" stop-color="#001122" stop-opacity="1"></stop></linearGradient></defs><g transform="translate(900, 0)"><path d="M0 297.5C-26.9 265.7 -53.9 233.9 -93 224.5C-132.1 215.1 -183.4 228.1 -210.3 210.3C-237.3 192.5 -239.9 143.9 -250.4 103.7C-260.8 63.5 -279.1 31.8 -297.5 0L0 0Z" fill="#3cfa81"></path></g><g transform="translate(0, 600)"><path d="M0 -297.5C40.6 -294.9 81.3 -292.4 113.8 -274.8C146.4 -257.2 170.9 -224.5 195.2 -195.2C219.4 -165.8 243.5 -139.9 260.5 -107.9C277.5 -76 287.5 -38 297.5 0L0 0Z" fill="#3cfa81"></path></g></svg>